const cueSet1 = [
  {
          "duration": 2.264148,
          "durationTicks": 61440,
          "midi": 52,
          "name": "E3",
          "ticks": 0,
          "time": 0,
          "velocity": 0.7874015748031497
        },
        {
          "duration": 2.264148,
          "durationTicks": 61440,
          "midi": 55,
          "name": "G3",
          "ticks": 61440,
          "time": 2.264148,
          "velocity": 0.7874015748031497
        },
        {
          "duration": 2.2641479999999996,
          "durationTicks": 61440,
          "midi": 54,
          "name": "F#3",
          "ticks": 122880,
          "time": 4.528296,
          "velocity": 0.7874015748031497
        },
        {
          "duration": 2.2641480000000005,
          "durationTicks": 61440,
          "midi": 57,
          "name": "A3",
          "ticks": 184320,
          "time": 6.792444,
          "velocity": 0.7874015748031497
        },
        {
          "duration": 2.2641480000000005,
          "durationTicks": 61440,
          "midi": 52,
          "name": "E3",
          "ticks": 245760,
          "time": 9.056592,
          "velocity": 0.7874015748031497
        },
        {
          "duration": 2.2641479999999987,
          "durationTicks": 61440,
          "midi": 55,
          "name": "G3",
          "ticks": 307200,
          "time": 11.32074,
          "velocity": 0.7874015748031497
        },
        {
          "duration": 2.2641480000000005,
          "durationTicks": 61440,
          "midi": 54,
          "name": "F#3",
          "ticks": 368640,
          "time": 13.584888,
          "velocity": 0.7874015748031497
        },
        {
          "duration": 2.2641480000000005,
          "durationTicks": 61440,
          "midi": 48,
          "name": "C3",
          "ticks": 430080,
          "time": 15.849036,
          "velocity": 0.7874015748031497
        },
        {
          "duration": 2.2641479999999987,
          "durationTicks": 61440,
          "midi": 52,
          "name": "E3",
          "ticks": 491520,
          "time": 18.113184,
          "velocity": 0.7874015748031497
        },
        {
          "duration": 2.2641480000000023,
          "durationTicks": 61440,
          "midi": 55,
          "name": "G3",
          "ticks": 552960,
          "time": 20.377332,
          "velocity": 0.7874015748031497
        },
        {
          "duration": 2.2641479999999987,
          "durationTicks": 61440,
          "midi": 54,
          "name": "F#3",
          "ticks": 614400,
          "time": 22.64148,
          "velocity": 0.7874015748031497
        },
        {
          "duration": 2.2641479999999987,
          "durationTicks": 61440,
          "midi": 57,
          "name": "A3",
          "ticks": 675840,
          "time": 24.905628,
          "velocity": 0.7874015748031497
        },
        {
          "duration": 2.2641480000000023,
          "durationTicks": 61440,
          "midi": 52,
          "name": "E3",
          "ticks": 737280,
          "time": 27.169776,
          "velocity": 0.7874015748031497
        },
        {
          "duration": 2.2641479999999987,
          "durationTicks": 61440,
          "midi": 55,
          "name": "G3",
          "ticks": 798720,
          "time": 29.433924,
          "velocity": 0.7874015748031497
        },
        {
          "duration": 2.2641480000000023,
          "durationTicks": 61440,
          "midi": 54,
          "name": "F#3",
          "ticks": 860160,
          "time": 31.698072,
          "velocity": 0.7874015748031497
        },
        {
          "duration": 2.2641479999999987,
          "durationTicks": 61440,
          "midi": 48,
          "name": "C3",
          "ticks": 921600,
          "time": 33.96222,
          "velocity": 0.7874015748031497
        },
        {
          "duration": 2.2641479999999987,
          "durationTicks": 61440,
          "midi": 52,
          "name": "E3",
          "ticks": 983040,
          "time": 36.226368,
          "velocity": 0.7874015748031497
        },
        {
          "duration": 2.2641479999999987,
          "durationTicks": 61440,
          "midi": 55,
          "name": "G3",
          "ticks": 1044480,
          "time": 38.490516,
          "velocity": 0.7874015748031497
        },
        {
          "duration": 2.264148000000006,
          "durationTicks": 61440,
          "midi": 54,
          "name": "F#3",
          "ticks": 1105920,
          "time": 40.754664,
          "velocity": 0.7874015748031497
        },
        {
          "duration": 2.2641479999999987,
          "durationTicks": 61440,
          "midi": 57,
          "name": "A3",
          "ticks": 1167360,
          "time": 43.018812000000004,
          "velocity": 0.7874015748031497
        },
        {
          "duration": 2.2641479999999987,
          "durationTicks": 61440,
          "midi": 52,
          "name": "E3",
          "ticks": 1228800,
          "time": 45.28296,
          "velocity": 0.7874015748031497
        },
        {
          "duration": 2.2641479999999987,
          "durationTicks": 61440,
          "midi": 55,
          "name": "G3",
          "ticks": 1290240,
          "time": 47.547108,
          "velocity": 0.7874015748031497
        },
        {
          "duration": 2.2641479999999987,
          "durationTicks": 61440,
          "midi": 54,
          "name": "F#3",
          "ticks": 1351680,
          "time": 49.811256,
          "velocity": 0.7874015748031497
        },
        {
          "duration": 2.2641479999999987,
          "durationTicks": 61440,
          "midi": 48,
          "name": "C3",
          "ticks": 1413120,
          "time": 52.075404,
          "velocity": 0.7874015748031497
        },
        {
          "duration": 2.2641479999999987,
          "durationTicks": 61440,
          "midi": 52,
          "name": "E3",
          "ticks": 983040,
          "time": 54.3450,
          "velocity": 0.7874015748031497
        },
];

export default cueSet1;
