const cueSet2 = [
 {
          "duration": 0.2830185,
          "durationTicks": 7680,
          "midi": 43,
          "name": "G2",
          "ticks": 0,
          "time": 0,
          "velocity": 0.7874015748031497
        },
        {
          "duration": 0.2830185,
          "durationTicks": 7680,
          "midi": 43,
          "name": "G2",
          "ticks": 7680,
          "time": 0.2830185,
          "velocity": 0.7874015748031497
        },
        {
          "duration": 0.28301849999999995,
          "durationTicks": 7680,
          "midi": 43,
          "name": "G2",
          "ticks": 15360,
          "time": 0.566037,
          "velocity": 0.7874015748031497
        },
        {
          "duration": 0.28301850000000006,
          "durationTicks": 7680,
          "midi": 43,
          "name": "G2",
          "ticks": 23040,
          "time": 0.8490555,
          "velocity": 0.7874015748031497
        },
        {
          "duration": 0.28301850000000006,
          "durationTicks": 7680,
          "midi": 43,
          "name": "G2",
          "ticks": 30720,
          "time": 1.132074,
          "velocity": 0.7874015748031497
        },
        {
          "duration": 0.28301849999999984,
          "durationTicks": 7680,
          "midi": 43,
          "name": "G2",
          "ticks": 38400,
          "time": 1.4150925,
          "velocity": 0.7874015748031497
        },
        {
          "duration": 0.28301850000000006,
          "durationTicks": 7680,
          "midi": 43,
          "name": "G2",
          "ticks": 46080,
          "time": 1.698111,
          "velocity": 0.7874015748031497
        },
        {
          "duration": 0.28301850000000006,
          "durationTicks": 7680,
          "midi": 43,
          "name": "G2",
          "ticks": 53760,
          "time": 1.9811295,
          "velocity": 0.7874015748031497
        },
        {
          "duration": 0.28301849999999984,
          "durationTicks": 7680,
          "midi": 43,
          "name": "G2",
          "ticks": 61440,
          "time": 2.264148,
          "velocity": 0.7874015748031497
        },
        {
          "duration": 0.2830185000000003,
          "durationTicks": 7680,
          "midi": 43,
          "name": "G2",
          "ticks": 69120,
          "time": 2.5471665,
          "velocity": 0.7874015748031497
        },
        {
          "duration": 0.28301849999999984,
          "durationTicks": 7680,
          "midi": 43,
          "name": "G2",
          "ticks": 76800,
          "time": 2.830185,
          "velocity": 0.7874015748031497
        },
        {
          "duration": 0.28301849999999984,
          "durationTicks": 7680,
          "midi": 43,
          "name": "G2",
          "ticks": 84480,
          "time": 3.1132035,
          "velocity": 0.7874015748031497
        },
        {
          "duration": 0.2830185000000003,
          "durationTicks": 7680,
          "midi": 43,
          "name": "G2",
          "ticks": 92160,
          "time": 3.396222,
          "velocity": 0.7874015748031497
        },
        {
          "duration": 0.28301849999999984,
          "durationTicks": 7680,
          "midi": 43,
          "name": "G2",
          "ticks": 99840,
          "time": 3.6792405,
          "velocity": 0.7874015748031497
        },
        {
          "duration": 0.2830185000000003,
          "durationTicks": 7680,
          "midi": 43,
          "name": "G2",
          "ticks": 107520,
          "time": 3.962259,
          "velocity": 0.7874015748031497
        },
        {
          "duration": 0.28301849999999984,
          "durationTicks": 7680,
          "midi": 43,
          "name": "G2",
          "ticks": 115200,
          "time": 4.2452775,
          "velocity": 0.7874015748031497
        },
        {
          "duration": 0.28301849999999984,
          "durationTicks": 7680,
          "midi": 43,
          "name": "G2",
          "ticks": 122880,
          "time": 4.528296,
          "velocity": 0.7874015748031497
        },
        {
          "duration": 0.28301849999999984,
          "durationTicks": 7680,
          "midi": 43,
          "name": "G2",
          "ticks": 130560,
          "time": 4.8113145,
          "velocity": 0.7874015748031497
        },
        {
          "duration": 0.28301850000000073,
          "durationTicks": 7680,
          "midi": 43,
          "name": "G2",
          "ticks": 138240,
          "time": 5.094333,
          "velocity": 0.7874015748031497
        },
        {
          "duration": 0.28301849999999984,
          "durationTicks": 7680,
          "midi": 43,
          "name": "G2",
          "ticks": 145920,
          "time": 5.3773515000000005,
          "velocity": 0.7874015748031497
        },
        {
          "duration": 0.28301849999999984,
          "durationTicks": 7680,
          "midi": 43,
          "name": "G2",
          "ticks": 153600,
          "time": 5.66037,
          "velocity": 0.7874015748031497
        },
        {
          "duration": 0.28301849999999984,
          "durationTicks": 7680,
          "midi": 43,
          "name": "G2",
          "ticks": 161280,
          "time": 5.9433885,
          "velocity": 0.7874015748031497
        },
        {
          "duration": 0.28301849999999984,
          "durationTicks": 7680,
          "midi": 43,
          "name": "G2",
          "ticks": 168960,
          "time": 6.226407,
          "velocity": 0.7874015748031497
        },
        {
          "duration": 0.28301849999999984,
          "durationTicks": 7680,
          "midi": 43,
          "name": "G2",
          "ticks": 176640,
          "time": 6.5094255,
          "velocity": 0.7874015748031497
        },
        {
          "duration": 0.28301850000000073,
          "durationTicks": 7680,
          "midi": 43,
          "name": "G2",
          "ticks": 184320,
          "time": 6.792444,
          "velocity": 0.7874015748031497
        },
        {
          "duration": 0.28301849999999984,
          "durationTicks": 7680,
          "midi": 43,
          "name": "G2",
          "ticks": 192000,
          "time": 7.0754625,
          "velocity": 0.7874015748031497
        },
        {
          "duration": 0.28301849999999984,
          "durationTicks": 7680,
          "midi": 43,
          "name": "G2",
          "ticks": 199680,
          "time": 7.358481,
          "velocity": 0.7874015748031497
        },
        {
          "duration": 0.28301849999999984,
          "durationTicks": 7680,
          "midi": 43,
          "name": "G2",
          "ticks": 207360,
          "time": 7.6414995,
          "velocity": 0.7874015748031497
        },
        {
          "duration": 0.28301849999999984,
          "durationTicks": 7680,
          "midi": 43,
          "name": "G2",
          "ticks": 215040,
          "time": 7.924518,
          "velocity": 0.7874015748031497
        },
        {
          "duration": 0.28301850000000073,
          "durationTicks": 7680,
          "midi": 43,
          "name": "G2",
          "ticks": 222720,
          "time": 8.2075365,
          "velocity": 0.7874015748031497
        },
        {
          "duration": 0.28301849999999895,
          "durationTicks": 7680,
          "midi": 43,
          "name": "G2",
          "ticks": 230400,
          "time": 8.490555,
          "velocity": 0.7874015748031497
        },
        {
          "duration": 0.28301850000000073,
          "durationTicks": 7680,
          "midi": 43,
          "name": "G2",
          "ticks": 238080,
          "time": 8.7735735,
          "velocity": 0.7874015748031497
        },
        {
          "duration": 0.28301850000000073,
          "durationTicks": 7680,
          "midi": 43,
          "name": "G2",
          "ticks": 245760,
          "time": 9.056592,
          "velocity": 0.7874015748031497
        },
        {
          "duration": 0.28301849999999895,
          "durationTicks": 7680,
          "midi": 43,
          "name": "G2",
          "ticks": 253440,
          "time": 9.339610500000001,
          "velocity": 0.7874015748031497
        },
        {
          "duration": 0.28301850000000073,
          "durationTicks": 7680,
          "midi": 43,
          "name": "G2",
          "ticks": 261120,
          "time": 9.622629,
          "velocity": 0.7874015748031497
        },
        {
          "duration": 0.28301849999999895,
          "durationTicks": 7680,
          "midi": 43,
          "name": "G2",
          "ticks": 268800,
          "time": 9.9056475,
          "velocity": 0.7874015748031497
        },
        {
          "duration": 0.28301850000000073,
          "durationTicks": 7680,
          "midi": 43,
          "name": "G2",
          "ticks": 276480,
          "time": 10.188666,
          "velocity": 0.7874015748031497
        },
        {
          "duration": 0.28301850000000073,
          "durationTicks": 7680,
          "midi": 43,
          "name": "G2",
          "ticks": 284160,
          "time": 10.4716845,
          "velocity": 0.7874015748031497
        },
        {
          "duration": 0.28301849999999895,
          "durationTicks": 7680,
          "midi": 43,
          "name": "G2",
          "ticks": 291840,
          "time": 10.754703000000001,
          "velocity": 0.7874015748031497
        },
        {
          "duration": 0.28301850000000073,
          "durationTicks": 7680,
          "midi": 43,
          "name": "G2",
          "ticks": 299520,
          "time": 11.0377215,
          "velocity": 0.7874015748031497
        },
        {
          "duration": 0.28301849999999895,
          "durationTicks": 7680,
          "midi": 43,
          "name": "G2",
          "ticks": 307200,
          "time": 11.32074,
          "velocity": 0.7874015748031497
        },
        {
          "duration": 0.28301850000000073,
          "durationTicks": 7680,
          "midi": 43,
          "name": "G2",
          "ticks": 314880,
          "time": 11.6037585,
          "velocity": 0.7874015748031497
        },
        {
          "duration": 0.28301850000000073,
          "durationTicks": 7680,
          "midi": 43,
          "name": "G2",
          "ticks": 322560,
          "time": 11.886777,
          "velocity": 0.7874015748031497
        },
        {
          "duration": 0.28301849999999895,
          "durationTicks": 7680,
          "midi": 43,
          "name": "G2",
          "ticks": 330240,
          "time": 12.169795500000001,
          "velocity": 0.7874015748031497
        },
        {
          "duration": 0.28301850000000073,
          "durationTicks": 7680,
          "midi": 43,
          "name": "G2",
          "ticks": 337920,
          "time": 12.452814,
          "velocity": 0.7874015748031497
        },
        {
          "duration": 0.28301849999999895,
          "durationTicks": 7680,
          "midi": 43,
          "name": "G2",
          "ticks": 345600,
          "time": 12.7358325,
          "velocity": 0.7874015748031497
        },
        {
          "duration": 0.28301850000000073,
          "durationTicks": 7680,
          "midi": 43,
          "name": "G2",
          "ticks": 353280,
          "time": 13.018851,
          "velocity": 0.7874015748031497
        },
        {
          "duration": 0.28301849999999895,
          "durationTicks": 7680,
          "midi": 43,
          "name": "G2",
          "ticks": 360960,
          "time": 13.3018695,
          "velocity": 0.7874015748031497
        },
        {
          "duration": 0.28301850000000073,
          "durationTicks": 7680,
          "midi": 43,
          "name": "G2",
          "ticks": 368640,
          "time": 13.584888,
          "velocity": 0.7874015748031497
        },
        {
          "duration": 0.28301850000000073,
          "durationTicks": 7680,
          "midi": 43,
          "name": "G2",
          "ticks": 376320,
          "time": 13.8679065,
          "velocity": 0.7874015748031497
        },
        {
          "duration": 0.28301849999999895,
          "durationTicks": 7680,
          "midi": 43,
          "name": "G2",
          "ticks": 384000,
          "time": 14.150925,
          "velocity": 0.7874015748031497
        },
        {
          "duration": 0.28301850000000073,
          "durationTicks": 7680,
          "midi": 43,
          "name": "G2",
          "ticks": 391680,
          "time": 14.4339435,
          "velocity": 0.7874015748031497
        },
        {
          "duration": 0.28301849999999895,
          "durationTicks": 7680,
          "midi": 43,
          "name": "G2",
          "ticks": 399360,
          "time": 14.716962,
          "velocity": 0.7874015748031497
        },
        {
          "duration": 0.28301850000000073,
          "durationTicks": 7680,
          "midi": 43,
          "name": "G2",
          "ticks": 407040,
          "time": 14.9999805,
          "velocity": 0.7874015748031497
        },
        {
          "duration": 0.28301850000000073,
          "durationTicks": 7680,
          "midi": 43,
          "name": "G2",
          "ticks": 414720,
          "time": 15.282999,
          "velocity": 0.7874015748031497
        },
        {
          "duration": 0.28301849999999895,
          "durationTicks": 7680,
          "midi": 43,
          "name": "G2",
          "ticks": 422400,
          "time": 15.566017500000001,
          "velocity": 0.7874015748031497
        },
        {
          "duration": 0.28301849999999895,
          "durationTicks": 7680,
          "midi": 43,
          "name": "G2",
          "ticks": 430080,
          "time": 15.849036,
          "velocity": 0.7874015748031497
        },
        {
          "duration": 0.28301850000000073,
          "durationTicks": 7680,
          "midi": 43,
          "name": "G2",
          "ticks": 437760,
          "time": 16.1320545,
          "velocity": 0.7874015748031497
        },
        {
          "duration": 0.28301850000000073,
          "durationTicks": 7680,
          "midi": 43,
          "name": "G2",
          "ticks": 445440,
          "time": 16.415073,
          "velocity": 0.7874015748031497
        },
        {
          "duration": 0.28301850000000073,
          "durationTicks": 7680,
          "midi": 43,
          "name": "G2",
          "ticks": 453120,
          "time": 16.6980915,
          "velocity": 0.7874015748031497
        },
        {
          "duration": 0.28301850000000073,
          "durationTicks": 7680,
          "midi": 43,
          "name": "G2",
          "ticks": 460800,
          "time": 16.98111,
          "velocity": 0.7874015748031497
        },
        {
          "duration": 0.2830184999999972,
          "durationTicks": 7680,
          "midi": 43,
          "name": "G2",
          "ticks": 468480,
          "time": 17.2641285,
          "velocity": 0.7874015748031497
        },
        {
          "duration": 0.28301850000000073,
          "durationTicks": 7680,
          "midi": 43,
          "name": "G2",
          "ticks": 476160,
          "time": 17.547147,
          "velocity": 0.7874015748031497
        },
        {
          "duration": 0.28301850000000073,
          "durationTicks": 7680,
          "midi": 43,
          "name": "G2",
          "ticks": 483840,
          "time": 17.8301655,
          "velocity": 0.7874015748031497
        },
        {
          "duration": 0.28301850000000073,
          "durationTicks": 7680,
          "midi": 43,
          "name": "G2",
          "ticks": 491520,
          "time": 18.113184,
          "velocity": 0.7874015748031497
        },
        {
          "duration": 0.28301850000000073,
          "durationTicks": 7680,
          "midi": 43,
          "name": "G2",
          "ticks": 499200,
          "time": 18.3962025,
          "velocity": 0.7874015748031497
        },
        {
          "duration": 0.2830184999999972,
          "durationTicks": 7680,
          "midi": 43,
          "name": "G2",
          "ticks": 506880,
          "time": 18.679221000000002,
          "velocity": 0.7874015748031497
        },
        {
          "duration": 0.28301850000000073,
          "durationTicks": 7680,
          "midi": 43,
          "name": "G2",
          "ticks": 514560,
          "time": 18.9622395,
          "velocity": 0.7874015748031497
        },
        {
          "duration": 0.28301850000000073,
          "durationTicks": 7680,
          "midi": 43,
          "name": "G2",
          "ticks": 522240,
          "time": 19.245258,
          "velocity": 0.7874015748031497
        },
        {
          "duration": 0.28301850000000073,
          "durationTicks": 7680,
          "midi": 43,
          "name": "G2",
          "ticks": 529920,
          "time": 19.5282765,
          "velocity": 0.7874015748031497
        },
        {
          "duration": 0.28301850000000073,
          "durationTicks": 7680,
          "midi": 43,
          "name": "G2",
          "ticks": 537600,
          "time": 19.811295,
          "velocity": 0.7874015748031497
        },
        {
          "duration": 0.2830184999999972,
          "durationTicks": 7680,
          "midi": 43,
          "name": "G2",
          "ticks": 545280,
          "time": 20.094313500000002,
          "velocity": 0.7874015748031497
        },
        {
          "duration": 0.28301850000000073,
          "durationTicks": 7680,
          "midi": 43,
          "name": "G2",
          "ticks": 552960,
          "time": 20.377332,
          "velocity": 0.7874015748031497
        },
        {
          "duration": 0.28301850000000073,
          "durationTicks": 7680,
          "midi": 43,
          "name": "G2",
          "ticks": 560640,
          "time": 20.6603505,
          "velocity": 0.7874015748031497
        },
        {
          "duration": 0.28301850000000073,
          "durationTicks": 7680,
          "midi": 43,
          "name": "G2",
          "ticks": 568320,
          "time": 20.943369,
          "velocity": 0.7874015748031497
        },
        {
          "duration": 0.28301850000000073,
          "durationTicks": 7680,
          "midi": 43,
          "name": "G2",
          "ticks": 576000,
          "time": 21.2263875,
          "velocity": 0.7874015748031497
        },
        {
          "duration": 0.2830184999999972,
          "durationTicks": 7680,
          "midi": 43,
          "name": "G2",
          "ticks": 583680,
          "time": 21.509406000000002,
          "velocity": 0.7874015748031497
        },
        {
          "duration": 0.28301850000000073,
          "durationTicks": 7680,
          "midi": 43,
          "name": "G2",
          "ticks": 591360,
          "time": 21.7924245,
          "velocity": 0.7874015748031497
        },
        {
          "duration": 0.28301850000000073,
          "durationTicks": 7680,
          "midi": 43,
          "name": "G2",
          "ticks": 599040,
          "time": 22.075443,
          "velocity": 0.7874015748031497
        },
        {
          "duration": 0.28301850000000073,
          "durationTicks": 7680,
          "midi": 43,
          "name": "G2",
          "ticks": 606720,
          "time": 22.3584615,
          "velocity": 0.7874015748031497
        },
        {
          "duration": 0.28301850000000073,
          "durationTicks": 7680,
          "midi": 43,
          "name": "G2",
          "ticks": 614400,
          "time": 22.64148,
          "velocity": 0.7874015748031497
        },
        {
          "duration": 0.2830184999999972,
          "durationTicks": 7680,
          "midi": 43,
          "name": "G2",
          "ticks": 622080,
          "time": 22.924498500000002,
          "velocity": 0.7874015748031497
        },
        {
          "duration": 0.28301850000000073,
          "durationTicks": 7680,
          "midi": 43,
          "name": "G2",
          "ticks": 629760,
          "time": 23.207517,
          "velocity": 0.7874015748031497
        },
        {
          "duration": 0.28301850000000073,
          "durationTicks": 7680,
          "midi": 43,
          "name": "G2",
          "ticks": 637440,
          "time": 23.4905355,
          "velocity": 0.7874015748031497
        },
        {
          "duration": 0.28301850000000073,
          "durationTicks": 7680,
          "midi": 43,
          "name": "G2",
          "ticks": 645120,
          "time": 23.773554,
          "velocity": 0.7874015748031497
        },
        {
          "duration": 0.28301850000000073,
          "durationTicks": 7680,
          "midi": 43,
          "name": "G2",
          "ticks": 652800,
          "time": 24.0565725,
          "velocity": 0.7874015748031497
        },
        {
          "duration": 0.2830184999999972,
          "durationTicks": 7680,
          "midi": 43,
          "name": "G2",
          "ticks": 660480,
          "time": 24.339591000000002,
          "velocity": 0.7874015748031497
        },
        {
          "duration": 0.28301850000000073,
          "durationTicks": 7680,
          "midi": 43,
          "name": "G2",
          "ticks": 668160,
          "time": 24.6226095,
          "velocity": 0.7874015748031497
        },
        {
          "duration": 0.28301850000000073,
          "durationTicks": 7680,
          "midi": 43,
          "name": "G2",
          "ticks": 675840,
          "time": 24.905628,
          "velocity": 0.7874015748031497
        },
        {
          "duration": 0.28301850000000073,
          "durationTicks": 7680,
          "midi": 43,
          "name": "G2",
          "ticks": 683520,
          "time": 25.1886465,
          "velocity": 0.7874015748031497
        },
        {
          "duration": 0.28301850000000073,
          "durationTicks": 7680,
          "midi": 43,
          "name": "G2",
          "ticks": 691200,
          "time": 25.471665,
          "velocity": 0.7874015748031497
        },
        {
          "duration": 0.2830184999999972,
          "durationTicks": 7680,
          "midi": 43,
          "name": "G2",
          "ticks": 698880,
          "time": 25.754683500000002,
          "velocity": 0.7874015748031497
        },
        {
          "duration": 0.28301850000000073,
          "durationTicks": 7680,
          "midi": 43,
          "name": "G2",
          "ticks": 706560,
          "time": 26.037702,
          "velocity": 0.7874015748031497
        },
        {
          "duration": 0.28301850000000073,
          "durationTicks": 7680,
          "midi": 43,
          "name": "G2",
          "ticks": 714240,
          "time": 26.3207205,
          "velocity": 0.7874015748031497
        },
        {
          "duration": 0.28301850000000073,
          "durationTicks": 7680,
          "midi": 43,
          "name": "G2",
          "ticks": 721920,
          "time": 26.603739,
          "velocity": 0.7874015748031497
        },
        {
          "duration": 0.2830184999999972,
          "durationTicks": 7680,
          "midi": 43,
          "name": "G2",
          "ticks": 729600,
          "time": 26.8867575,
          "velocity": 0.7874015748031497
        },
        {
          "duration": 0.28301850000000073,
          "durationTicks": 7680,
          "midi": 43,
          "name": "G2",
          "ticks": 737280,
          "time": 27.169776,
          "velocity": 0.7874015748031497
        },
        {
          "duration": 0.28301850000000073,
          "durationTicks": 7680,
          "midi": 43,
          "name": "G2",
          "ticks": 744960,
          "time": 27.4527945,
          "velocity": 0.7874015748031497
        },
        {
          "duration": 0.28301850000000073,
          "durationTicks": 7680,
          "midi": 43,
          "name": "G2",
          "ticks": 752640,
          "time": 27.735813,
          "velocity": 0.7874015748031497
        },
        {
          "duration": 0.28301850000000073,
          "durationTicks": 7680,
          "midi": 43,
          "name": "G2",
          "ticks": 760320,
          "time": 28.0188315,
          "velocity": 0.7874015748031497
        },
        {
          "duration": 0.2830184999999972,
          "durationTicks": 7680,
          "midi": 43,
          "name": "G2",
          "ticks": 768000,
          "time": 28.30185,
          "velocity": 0.7874015748031497
        },
        {
          "duration": 0.28301850000000073,
          "durationTicks": 7680,
          "midi": 43,
          "name": "G2",
          "ticks": 775680,
          "time": 28.5848685,
          "velocity": 0.7874015748031497
        },
        {
          "duration": 0.28301850000000073,
          "durationTicks": 7680,
          "midi": 43,
          "name": "G2",
          "ticks": 783360,
          "time": 28.867887,
          "velocity": 0.7874015748031497
        },
        {
          "duration": 0.28301850000000073,
          "durationTicks": 7680,
          "midi": 43,
          "name": "G2",
          "ticks": 791040,
          "time": 29.1509055,
          "velocity": 0.7874015748031497
        },
        {
          "duration": 0.28301850000000073,
          "durationTicks": 7680,
          "midi": 43,
          "name": "G2",
          "ticks": 798720,
          "time": 29.433924,
          "velocity": 0.7874015748031497
        },
        {
          "duration": 0.2830184999999972,
          "durationTicks": 7680,
          "midi": 43,
          "name": "G2",
          "ticks": 806400,
          "time": 29.716942500000002,
          "velocity": 0.7874015748031497
        },
        {
          "duration": 0.28301850000000073,
          "durationTicks": 7680,
          "midi": 43,
          "name": "G2",
          "ticks": 814080,
          "time": 29.999961,
          "velocity": 0.7874015748031497
        },
        {
          "duration": 0.28301850000000073,
          "durationTicks": 7680,
          "midi": 43,
          "name": "G2",
          "ticks": 821760,
          "time": 30.2829795,
          "velocity": 0.7874015748031497
        },
        {
          "duration": 0.28301850000000073,
          "durationTicks": 7680,
          "midi": 43,
          "name": "G2",
          "ticks": 829440,
          "time": 30.565998,
          "velocity": 0.7874015748031497
        },
        {
          "duration": 0.28301850000000073,
          "durationTicks": 7680,
          "midi": 43,
          "name": "G2",
          "ticks": 837120,
          "time": 30.8490165,
          "velocity": 0.7874015748031497
        },
        {
          "duration": 0.2830184999999972,
          "durationTicks": 7680,
          "midi": 43,
          "name": "G2",
          "ticks": 844800,
          "time": 31.132035000000002,
          "velocity": 0.7874015748031497
        },
        {
          "duration": 0.28301850000000073,
          "durationTicks": 7680,
          "midi": 43,
          "name": "G2",
          "ticks": 852480,
          "time": 31.4150535,
          "velocity": 0.7874015748031497
        },
        {
          "duration": 0.28301850000000073,
          "durationTicks": 7680,
          "midi": 43,
          "name": "G2",
          "ticks": 860160,
          "time": 31.698072,
          "velocity": 0.7874015748031497
        },
        {
          "duration": 0.2830184999999972,
          "durationTicks": 7680,
          "midi": 43,
          "name": "G2",
          "ticks": 867840,
          "time": 31.9810905,
          "velocity": 0.7874015748031497
        },
        {
          "duration": 0.2830185000000043,
          "durationTicks": 7680,
          "midi": 43,
          "name": "G2",
          "ticks": 875520,
          "time": 32.264109,
          "velocity": 0.7874015748031497
        },
        {
          "duration": 0.2830184999999972,
          "durationTicks": 7680,
          "midi": 43,
          "name": "G2",
          "ticks": 883200,
          "time": 32.5471275,
          "velocity": 0.7874015748031497
        },
        {
          "duration": 0.2830185000000043,
          "durationTicks": 7680,
          "midi": 43,
          "name": "G2",
          "ticks": 890880,
          "time": 32.830146,
          "velocity": 0.7874015748031497
        },
        {
          "duration": 0.2830184999999972,
          "durationTicks": 7680,
          "midi": 43,
          "name": "G2",
          "ticks": 898560,
          "time": 33.1131645,
          "velocity": 0.7874015748031497
        },
        {
          "duration": 0.2830184999999972,
          "durationTicks": 7680,
          "midi": 43,
          "name": "G2",
          "ticks": 906240,
          "time": 33.396183,
          "velocity": 0.7874015748031497
        },
        {
          "duration": 0.2830185000000043,
          "durationTicks": 7680,
          "midi": 43,
          "name": "G2",
          "ticks": 913920,
          "time": 33.6792015,
          "velocity": 0.7874015748031497
        },
        {
          "duration": 0.2830184999999972,
          "durationTicks": 7680,
          "midi": 43,
          "name": "G2",
          "ticks": 921600,
          "time": 33.96222,
          "velocity": 0.7874015748031497
        },
        {
          "duration": 0.2830185000000043,
          "durationTicks": 7680,
          "midi": 43,
          "name": "G2",
          "ticks": 929280,
          "time": 34.2452385,
          "velocity": 0.7874015748031497
        },
        {
          "duration": 0.2830184999999972,
          "durationTicks": 7680,
          "midi": 43,
          "name": "G2",
          "ticks": 936960,
          "time": 34.528257,
          "velocity": 0.7874015748031497
        },
        {
          "duration": 0.2830184999999972,
          "durationTicks": 7680,
          "midi": 43,
          "name": "G2",
          "ticks": 944640,
          "time": 34.8112755,
          "velocity": 0.7874015748031497
        },
        {
          "duration": 0.2830185000000043,
          "durationTicks": 7680,
          "midi": 43,
          "name": "G2",
          "ticks": 952320,
          "time": 35.094294,
          "velocity": 0.7874015748031497
        },
        {
          "duration": 0.2830184999999972,
          "durationTicks": 7680,
          "midi": 43,
          "name": "G2",
          "ticks": 960000,
          "time": 35.3773125,
          "velocity": 0.7874015748031497
        },
        {
          "duration": 0.2830185000000043,
          "durationTicks": 7680,
          "midi": 43,
          "name": "G2",
          "ticks": 967680,
          "time": 35.660331,
          "velocity": 0.7874015748031497
        },
        {
          "duration": 0.2830184999999972,
          "durationTicks": 7680,
          "midi": 43,
          "name": "G2",
          "ticks": 975360,
          "time": 35.943349500000004,
          "velocity": 0.7874015748031497
        },
        {
          "duration": 0.2830184999999972,
          "durationTicks": 7680,
          "midi": 43,
          "name": "G2",
          "ticks": 983040,
          "time": 36.226368,
          "velocity": 0.7874015748031497
        },
        {
          "duration": 0.2830185000000043,
          "durationTicks": 7680,
          "midi": 43,
          "name": "G2",
          "ticks": 990720,
          "time": 36.5093865,
          "velocity": 0.7874015748031497
        },
        {
          "duration": 0.2830184999999972,
          "durationTicks": 7680,
          "midi": 43,
          "name": "G2",
          "ticks": 998400,
          "time": 36.792405,
          "velocity": 0.7874015748031497
        },
        {
          "duration": 0.2830185000000043,
          "durationTicks": 7680,
          "midi": 43,
          "name": "G2",
          "ticks": 1006080,
          "time": 37.0754235,
          "velocity": 0.7874015748031497
        },
        {
          "duration": 0.2830184999999972,
          "durationTicks": 7680,
          "midi": 43,
          "name": "G2",
          "ticks": 1013760,
          "time": 37.358442000000004,
          "velocity": 0.7874015748031497
        },
        {
          "duration": 0.2830184999999972,
          "durationTicks": 7680,
          "midi": 43,
          "name": "G2",
          "ticks": 1021440,
          "time": 37.6414605,
          "velocity": 0.7874015748031497
        },
        {
          "duration": 0.2830185000000043,
          "durationTicks": 7680,
          "midi": 43,
          "name": "G2",
          "ticks": 1029120,
          "time": 37.924479,
          "velocity": 0.7874015748031497
        },
        {
          "duration": 0.2830184999999972,
          "durationTicks": 7680,
          "midi": 43,
          "name": "G2",
          "ticks": 1036800,
          "time": 38.2074975,
          "velocity": 0.7874015748031497
        },
        {
          "duration": 0.2830185000000043,
          "durationTicks": 7680,
          "midi": 43,
          "name": "G2",
          "ticks": 1044480,
          "time": 38.490516,
          "velocity": 0.7874015748031497
        },
        {
          "duration": 0.2830184999999972,
          "durationTicks": 7680,
          "midi": 43,
          "name": "G2",
          "ticks": 1052160,
          "time": 38.773534500000004,
          "velocity": 0.7874015748031497
        },
        {
          "duration": 0.2830184999999972,
          "durationTicks": 7680,
          "midi": 43,
          "name": "G2",
          "ticks": 1059840,
          "time": 39.056553,
          "velocity": 0.7874015748031497
        },
        {
          "duration": 0.2830185000000043,
          "durationTicks": 7680,
          "midi": 43,
          "name": "G2",
          "ticks": 1067520,
          "time": 39.3395715,
          "velocity": 0.7874015748031497
        },
        {
          "duration": 0.2830184999999972,
          "durationTicks": 7680,
          "midi": 43,
          "name": "G2",
          "ticks": 1075200,
          "time": 39.62259,
          "velocity": 0.7874015748031497
        },
        {
          "duration": 0.2830185000000043,
          "durationTicks": 7680,
          "midi": 43,
          "name": "G2",
          "ticks": 1082880,
          "time": 39.9056085,
          "velocity": 0.7874015748031497
        },
        {
          "duration": 0.2830184999999972,
          "durationTicks": 7680,
          "midi": 43,
          "name": "G2",
          "ticks": 1090560,
          "time": 40.188627000000004,
          "velocity": 0.7874015748031497
        },
        {
          "duration": 0.2830184999999972,
          "durationTicks": 7680,
          "midi": 43,
          "name": "G2",
          "ticks": 1098240,
          "time": 40.4716455,
          "velocity": 0.7874015748031497
        },
        {
          "duration": 0.2830185000000043,
          "durationTicks": 7680,
          "midi": 43,
          "name": "G2",
          "ticks": 1105920,
          "time": 40.754664,
          "velocity": 0.7874015748031497
        },
        {
          "duration": 0.2830184999999972,
          "durationTicks": 7680,
          "midi": 43,
          "name": "G2",
          "ticks": 1113600,
          "time": 41.0376825,
          "velocity": 0.7874015748031497
        },
        {
          "duration": 0.2830185000000043,
          "durationTicks": 7680,
          "midi": 43,
          "name": "G2",
          "ticks": 1121280,
          "time": 41.320701,
          "velocity": 0.7874015748031497
        },
        {
          "duration": 0.2830184999999972,
          "durationTicks": 7680,
          "midi": 43,
          "name": "G2",
          "ticks": 1128960,
          "time": 41.603719500000004,
          "velocity": 0.7874015748031497
        },
        {
          "duration": 0.2830184999999972,
          "durationTicks": 7680,
          "midi": 43,
          "name": "G2",
          "ticks": 1136640,
          "time": 41.886738,
          "velocity": 0.7874015748031497
        },
        {
          "duration": 0.2830185000000043,
          "durationTicks": 7680,
          "midi": 43,
          "name": "G2",
          "ticks": 1144320,
          "time": 42.1697565,
          "velocity": 0.7874015748031497
        },
        {
          "duration": 0.2830184999999972,
          "durationTicks": 7680,
          "midi": 43,
          "name": "G2",
          "ticks": 1152000,
          "time": 42.452775,
          "velocity": 0.7874015748031497
        },
        {
          "duration": 0.2830185000000043,
          "durationTicks": 7680,
          "midi": 43,
          "name": "G2",
          "ticks": 1159680,
          "time": 42.7357935,
          "velocity": 0.7874015748031497
        },
        {
          "duration": 0.2830184999999972,
          "durationTicks": 7680,
          "midi": 43,
          "name": "G2",
          "ticks": 1167360,
          "time": 43.018812000000004,
          "velocity": 0.7874015748031497
        },
        {
          "duration": 0.2830184999999972,
          "durationTicks": 7680,
          "midi": 43,
          "name": "G2",
          "ticks": 1175040,
          "time": 43.3018305,
          "velocity": 0.7874015748031497
        },
        {
          "duration": 0.2830185000000043,
          "durationTicks": 7680,
          "midi": 43,
          "name": "G2",
          "ticks": 1182720,
          "time": 43.584849,
          "velocity": 0.7874015748031497
        },
        {
          "duration": 0.2830184999999972,
          "durationTicks": 7680,
          "midi": 43,
          "name": "G2",
          "ticks": 1190400,
          "time": 43.8678675,
          "velocity": 0.7874015748031497
        },
        {
          "duration": 0.2830185000000043,
          "durationTicks": 7680,
          "midi": 43,
          "name": "G2",
          "ticks": 1198080,
          "time": 44.150886,
          "velocity": 0.7874015748031497
        },
        {
          "duration": 0.2830184999999972,
          "durationTicks": 7680,
          "midi": 43,
          "name": "G2",
          "ticks": 1205760,
          "time": 44.433904500000004,
          "velocity": 0.7874015748031497
        },
        {
          "duration": 0.2830184999999972,
          "durationTicks": 7680,
          "midi": 43,
          "name": "G2",
          "ticks": 1213440,
          "time": 44.716923,
          "velocity": 0.7874015748031497
        },
        {
          "duration": 0.2830185000000043,
          "durationTicks": 7680,
          "midi": 43,
          "name": "G2",
          "ticks": 1221120,
          "time": 44.9999415,
          "velocity": 0.7874015748031497
        },
        {
          "duration": 0.2830184999999972,
          "durationTicks": 7680,
          "midi": 43,
          "name": "G2",
          "ticks": 1228800,
          "time": 45.28296,
          "velocity": 0.7874015748031497
        },
        {
          "duration": 0.2830185000000043,
          "durationTicks": 7680,
          "midi": 43,
          "name": "G2",
          "ticks": 1236480,
          "time": 45.5659785,
          "velocity": 0.7874015748031497
        },
        {
          "duration": 0.2830184999999972,
          "durationTicks": 7680,
          "midi": 43,
          "name": "G2",
          "ticks": 1244160,
          "time": 45.848997000000004,
          "velocity": 0.7874015748031497
        },
        {
          "duration": 0.2830184999999972,
          "durationTicks": 7680,
          "midi": 43,
          "name": "G2",
          "ticks": 1251840,
          "time": 46.1320155,
          "velocity": 0.7874015748031497
        },
        {
          "duration": 0.2830185000000043,
          "durationTicks": 7680,
          "midi": 43,
          "name": "G2",
          "ticks": 1259520,
          "time": 46.415034,
          "velocity": 0.7874015748031497
        },
        {
          "duration": 0.2830184999999972,
          "durationTicks": 7680,
          "midi": 43,
          "name": "G2",
          "ticks": 1267200,
          "time": 46.6980525,
          "velocity": 0.7874015748031497
        },
        {
          "duration": 0.2830185000000043,
          "durationTicks": 7680,
          "midi": 43,
          "name": "G2",
          "ticks": 1274880,
          "time": 46.981071,
          "velocity": 0.7874015748031497
        },
        {
          "duration": 0.2830184999999972,
          "durationTicks": 7680,
          "midi": 43,
          "name": "G2",
          "ticks": 1282560,
          "time": 47.264089500000004,
          "velocity": 0.7874015748031497
        },
        {
          "duration": 0.2830184999999972,
          "durationTicks": 7680,
          "midi": 43,
          "name": "G2",
          "ticks": 1290240,
          "time": 47.547108,
          "velocity": 0.7874015748031497
        },
        {
          "duration": 0.2830185000000043,
          "durationTicks": 7680,
          "midi": 43,
          "name": "G2",
          "ticks": 1297920,
          "time": 47.8301265,
          "velocity": 0.7874015748031497
        },
        {
          "duration": 0.2830184999999972,
          "durationTicks": 7680,
          "midi": 43,
          "name": "G2",
          "ticks": 1305600,
          "time": 48.113145,
          "velocity": 0.7874015748031497
        },
        {
          "duration": 0.2830185000000043,
          "durationTicks": 7680,
          "midi": 43,
          "name": "G2",
          "ticks": 1313280,
          "time": 48.3961635,
          "velocity": 0.7874015748031497
        },
        {
          "duration": 0.2830184999999972,
          "durationTicks": 7680,
          "midi": 43,
          "name": "G2",
          "ticks": 1320960,
          "time": 48.679182000000004,
          "velocity": 0.7874015748031497
        },
        {
          "duration": 0.2830184999999972,
          "durationTicks": 7680,
          "midi": 43,
          "name": "G2",
          "ticks": 1328640,
          "time": 48.9622005,
          "velocity": 0.7874015748031497
        },
        {
          "duration": 0.2830185000000043,
          "durationTicks": 7680,
          "midi": 43,
          "name": "G2",
          "ticks": 1336320,
          "time": 49.245219,
          "velocity": 0.7874015748031497
        },
        {
          "duration": 0.2830184999999972,
          "durationTicks": 7680,
          "midi": 43,
          "name": "G2",
          "ticks": 1344000,
          "time": 49.5282375,
          "velocity": 0.7874015748031497
        },
        {
          "duration": 0.2830185000000043,
          "durationTicks": 7680,
          "midi": 43,
          "name": "G2",
          "ticks": 1351680,
          "time": 49.811256,
          "velocity": 0.7874015748031497
        },
        {
          "duration": 0.2830184999999972,
          "durationTicks": 7680,
          "midi": 43,
          "name": "G2",
          "ticks": 1359360,
          "time": 50.094274500000004,
          "velocity": 0.7874015748031497
        },
        {
          "duration": 0.2830184999999972,
          "durationTicks": 7680,
          "midi": 43,
          "name": "G2",
          "ticks": 1367040,
          "time": 50.377293,
          "velocity": 0.7874015748031497
        },
        {
          "duration": 0.2830185000000043,
          "durationTicks": 7680,
          "midi": 43,
          "name": "G2",
          "ticks": 1374720,
          "time": 50.6603115,
          "velocity": 0.7874015748031497
        },
        {
          "duration": 0.2830184999999972,
          "durationTicks": 7680,
          "midi": 43,
          "name": "G2",
          "ticks": 1382400,
          "time": 50.94333,
          "velocity": 0.7874015748031497
        },
        {
          "duration": 0.2830185000000043,
          "durationTicks": 7680,
          "midi": 43,
          "name": "G2",
          "ticks": 1390080,
          "time": 51.2263485,
          "velocity": 0.7874015748031497
        },
        {
          "duration": 0.2830184999999972,
          "durationTicks": 7680,
          "midi": 43,
          "name": "G2",
          "ticks": 1397760,
          "time": 51.509367000000005,
          "velocity": 0.7874015748031497
        },
        {
          "duration": 0.2830184999999972,
          "durationTicks": 7680,
          "midi": 43,
          "name": "G2",
          "ticks": 1405440,
          "time": 51.7923855,
          "velocity": 0.7874015748031497
        },
        {
          "duration": 0.2830185000000043,
          "durationTicks": 7680,
          "midi": 43,
          "name": "G2",
          "ticks": 1413120,
          "time": 52.075404,
          "velocity": 0.7874015748031497
        },
        {
          "duration": 0.2830184999999972,
          "durationTicks": 7680,
          "midi": 43,
          "name": "G2",
          "ticks": 1420800,
          "time": 52.3584225,
          "velocity": 0.7874015748031497
        },
        {
          "duration": 0.2830185000000043,
          "durationTicks": 7680,
          "midi": 43,
          "name": "G2",
          "ticks": 1428480,
          "time": 52.641441,
          "velocity": 0.7874015748031497
        },
        {
          "duration": 0.2830184999999972,
          "durationTicks": 7680,
          "midi": 43,
          "name": "G2",
          "ticks": 1436160,
          "time": 52.924459500000005,
          "velocity": 0.7874015748031497
        },
        {
          "duration": 0.2830184999999972,
          "durationTicks": 7680,
          "midi": 43,
          "name": "G2",
          "ticks": 1443840,
          "time": 53.207478,
          "velocity": 0.7874015748031497
        },
        {
          "duration": 0.2830185000000043,
          "durationTicks": 7680,
          "midi": 43,
          "name": "G2",
          "ticks": 1451520,
          "time": 53.4904965,
          "velocity": 0.7874015748031497
        },
        {
          "duration": 0.2830184999999972,
          "durationTicks": 7680,
          "midi": 43,
          "name": "G2",
          "ticks": 1459200,
          "time": 53.773515,
          "velocity": 0.7874015748031497
        },
        {
          "duration": 0.2830184999999972,
          "durationTicks": 7680,
          "midi": 43,
          "name": "G2",
          "ticks": 1466880,
          "time": 54.0565335,
          "velocity": 0.7874015748031497
        }
];

export default cueSet2;
